<?xml version="1.0" encoding="iso-8859-1"?>
<!-- Generator: Adobe Illustrator 17.0.0, SVG Export Plug-In . SVG Version: 6.00 Build 0)  -->
<!DOCTYPE svg PUBLIC "-//W3C//DTD SVG 1.1//EN" "http://www.w3.org/Graphics/SVG/1.1/DTD/svg11.dtd">
<svg version="1.1" id="_x30_9_x5F_solution_x5F_puzzle"
	 xmlns="http://www.w3.org/2000/svg" xmlns:xlink="http://www.w3.org/1999/xlink" x="0px" y="0px" width="64px" height="64px"
	 viewBox="0 0 64 64" style="enable-background:new 0 0 64 64;" xml:space="preserve">
<g>
	<g>
		<g>
			<g>
				<path style="fill:none;stroke:#222829;stroke-width:2;stroke-miterlimit:10;" d="M31,1H4C2.344,1,1,2.344,1,4v26h12v-1
					c-1.792-1.038-3-2.78-3-5c0-3.313,2.686-6,6-6c3.313,0,6,2.687,6,6c0,2.22-1.208,3.962-3,5v1h12"/>
			</g>
			<g>
				<path style="fill:none;stroke:#222829;stroke-width:2;stroke-miterlimit:10;" d="M1,33v27c0,1.656,1.344,3,3,3h26V51h-1
					c-1.038,1.792-2.78,3-5,3c-3.314,0-6-2.687-6-6s2.686-6,6-6c2.22,0,3.962,1.208,5,3h1V33"/>
			</g>
			<g>
				<path style="fill:none;stroke:#222829;stroke-width:2;stroke-miterlimit:10;" d="M33,63h27c1.656,0,3-1.344,3-3V34H51v1
					c2,1.038,3,2.78,3,5c0,3.313-2.687,6-6,6c-3.314,0-6-2.687-6-6c0-2.22,1-3.962,3-5v-1H33"/>
			</g>
			<g>
				<path style="fill:none;stroke:#222829;stroke-width:2;stroke-miterlimit:10;" d="M63,31V4c0-1.656-1.344-3-3-3H34v12h1
					c1.038-1.792,2.78-3,5-3c3.313,0,6,2.686,6,6s-2.687,6-6,6c-2.22,0-3.962-1.208-5-3h-1v12"/>
			</g>
		</g>
		<line style="fill:none;stroke:#222829;stroke-width:2;stroke-miterlimit:10;" x1="31" y1="5" x2="29" y2="5"/>
		<line style="fill:none;stroke:#222829;stroke-width:2;stroke-miterlimit:10;" x1="27" y1="5" x2="25" y2="5"/>
		<line style="fill:none;stroke:#222829;stroke-width:2;stroke-miterlimit:10;" x1="23" y1="5" x2="21" y2="5"/>
		<line style="fill:none;stroke:#222829;stroke-width:2;stroke-miterlimit:10;" x1="43" y1="59" x2="41" y2="59"/>
		<line style="fill:none;stroke:#222829;stroke-width:2;stroke-miterlimit:10;" x1="39" y1="59" x2="37" y2="59"/>
		<line style="fill:none;stroke:#222829;stroke-width:2;stroke-miterlimit:10;" x1="35" y1="59" x2="33" y2="59"/>
		<line style="fill:none;stroke:#222829;stroke-width:2;stroke-miterlimit:10;" x1="5" y1="33" x2="5" y2="35"/>
		<line style="fill:none;stroke:#222829;stroke-width:2;stroke-miterlimit:10;" x1="5" y1="37" x2="5" y2="39"/>
		<line style="fill:none;stroke:#222829;stroke-width:2;stroke-miterlimit:10;" x1="5" y1="41" x2="5" y2="43"/>
		<line style="fill:none;stroke:#222829;stroke-width:2;stroke-miterlimit:10;" x1="59" y1="21" x2="59" y2="23"/>
		<line style="fill:none;stroke:#222829;stroke-width:2;stroke-miterlimit:10;" x1="59" y1="25" x2="59" y2="27"/>
		<line style="fill:none;stroke:#222829;stroke-width:2;stroke-miterlimit:10;" x1="59" y1="29" x2="59" y2="31"/>
	</g>
</g>
</svg>
