<?xml version="1.0" encoding="iso-8859-1"?>
<!-- Generator: Adobe Illustrator 17.0.0, SVG Export Plug-In . SVG Version: 6.00 Build 0)  -->
<!DOCTYPE svg PUBLIC "-//W3C//DTD SVG 1.1//EN" "http://www.w3.org/Graphics/SVG/1.1/DTD/svg11.dtd">
<svg version="1.1" id="_x34_0_x5F_augmented_x5F_reality_x5F_city"
	 xmlns="http://www.w3.org/2000/svg" xmlns:xlink="http://www.w3.org/1999/xlink" x="0px" y="0px" width="64px" height="64px"
	 viewBox="0 0 64 64" style="enable-background:new 0 0 64 64;" xml:space="preserve">
<g>
	<path style="fill:none;stroke:#222829;stroke-width:2;stroke-miterlimit:10;" d="M50,9h10c1.65,0,3,1.35,3,3v34c0,1.65-1.35,3-3,3
		H4c-1.65,0-3-1.35-3-3V12c0-1.65,1.35-3,3-3h26"/>
	<polyline style="fill:none;stroke:#222829;stroke-width:2;stroke-miterlimit:10;" points="33,63 33,37 52,37 	"/>
	<polyline style="fill:none;stroke:#222829;stroke-width:2;stroke-miterlimit:10;" points="32,25 47,25 47,37 	"/>
	<line style="fill:none;stroke:#222829;stroke-width:2;stroke-miterlimit:10;" x1="0" y1="63" x2="64" y2="63"/>
	<polyline style="fill:none;stroke:#222829;stroke-width:2;stroke-miterlimit:10;" points="3,63 3,57 23,57 23,63 	"/>
	<line style="fill:none;stroke:#222829;stroke-width:2;stroke-miterlimit:10;" x1="9" y1="9" x2="9" y2="49"/>
	<line style="fill:none;stroke:#222829;stroke-width:2;stroke-miterlimit:10;" x1="55" y1="9" x2="55" y2="49"/>
	<line style="fill:none;stroke:#222829;stroke-width:2;stroke-miterlimit:10;" x1="59" y1="25" x2="59" y2="33"/>
	<polygon style="fill:none;stroke:#222829;stroke-width:2;stroke-miterlimit:10;" points="29,25 25,25 21,29 17,25 13,25 13,13 
		29,13 	"/>
	<line style="fill:none;stroke:#222829;stroke-width:2;stroke-miterlimit:10;" x1="16" y1="17" x2="26" y2="17"/>
	<line style="fill:none;stroke:#222829;stroke-width:2;stroke-miterlimit:10;" x1="16" y1="21" x2="26" y2="21"/>
	<path style="fill:none;stroke:#222829;stroke-width:2;stroke-miterlimit:10;" d="M47,8c0,6-7,13-7,13s-7-7-7-13
		c0-3.866,3.134-7,7-7C43.866,1,47,4.134,47,8z"/>
	<circle style="fill:none;stroke:#222829;stroke-width:2;stroke-miterlimit:10;" cx="40" cy="8" r="3"/>
	<line style="fill:none;stroke:#222829;stroke-width:2;stroke-miterlimit:10;" x1="5" y1="28" x2="5" y2="30"/>
	<line style="fill:none;stroke:#222829;stroke-width:2;stroke-miterlimit:10;" x1="5" y1="24" x2="5" y2="26"/>
	<line style="fill:none;stroke:#222829;stroke-width:2;stroke-miterlimit:10;" x1="5" y1="32" x2="5" y2="34"/>
	<polyline style="fill:none;stroke:#222829;stroke-width:2;stroke-miterlimit:10;" points="39,63 39,55 61,55 61,63 	"/>
	<polyline style="fill:none;stroke:#222829;stroke-width:2;stroke-miterlimit:10;" points="13,57 13,33 29,33 29,63 	"/>
	<line style="fill:none;stroke:#222829;stroke-width:2;stroke-miterlimit:10;" x1="34" y1="29" x2="36" y2="29"/>
	<line style="fill:none;stroke:#222829;stroke-width:2;stroke-miterlimit:10;" x1="38" y1="29" x2="40" y2="29"/>
	<line style="fill:none;stroke:#222829;stroke-width:2;stroke-miterlimit:10;" x1="34" y1="33" x2="36" y2="33"/>
	<line style="fill:none;stroke:#222829;stroke-width:2;stroke-miterlimit:10;" x1="38" y1="33" x2="40" y2="33"/>
	<line style="fill:none;stroke:#222829;stroke-width:2;stroke-miterlimit:10;" x1="42" y1="29" x2="44" y2="29"/>
	<line style="fill:none;stroke:#222829;stroke-width:2;stroke-miterlimit:10;" x1="42" y1="33" x2="44" y2="33"/>
	<line style="fill:none;stroke:#222829;stroke-width:2;stroke-miterlimit:10;" x1="36" y1="41" x2="48" y2="41"/>
	<line style="fill:none;stroke:#222829;stroke-width:2;stroke-miterlimit:10;" x1="36" y1="45" x2="48" y2="45"/>
	<line style="fill:none;stroke:#222829;stroke-width:2;stroke-miterlimit:10;" x1="39" y1="59" x2="61" y2="59"/>
	<line style="fill:none;stroke:#222829;stroke-width:2;stroke-miterlimit:10;" x1="16" y1="37" x2="18" y2="37"/>
	<line style="fill:none;stroke:#222829;stroke-width:2;stroke-miterlimit:10;" x1="20" y1="37" x2="22" y2="37"/>
	<line style="fill:none;stroke:#222829;stroke-width:2;stroke-miterlimit:10;" x1="24" y1="37" x2="26" y2="37"/>
	<line style="fill:none;stroke:#222829;stroke-width:2;stroke-miterlimit:10;" x1="16" y1="41" x2="18" y2="41"/>
	<line style="fill:none;stroke:#222829;stroke-width:2;stroke-miterlimit:10;" x1="20" y1="41" x2="22" y2="41"/>
	<line style="fill:none;stroke:#222829;stroke-width:2;stroke-miterlimit:10;" x1="24" y1="41" x2="26" y2="41"/>
	<line style="fill:none;stroke:#222829;stroke-width:2;stroke-miterlimit:10;" x1="16" y1="45" x2="18" y2="45"/>
	<line style="fill:none;stroke:#222829;stroke-width:2;stroke-miterlimit:10;" x1="20" y1="45" x2="22" y2="45"/>
	<line style="fill:none;stroke:#222829;stroke-width:2;stroke-miterlimit:10;" x1="24" y1="45" x2="26" y2="45"/>
	<line style="fill:none;stroke:#222829;stroke-width:2;stroke-miterlimit:10;" x1="47" y1="49" x2="47" y2="55"/>
	<line style="fill:none;stroke:#222829;stroke-width:2;stroke-miterlimit:10;" x1="16" y1="53" x2="18" y2="53"/>
	<line style="fill:none;stroke:#222829;stroke-width:2;stroke-miterlimit:10;" x1="20" y1="53" x2="22" y2="53"/>
	<line style="fill:none;stroke:#222829;stroke-width:2;stroke-miterlimit:10;" x1="24" y1="53" x2="26" y2="53"/>
	<line style="fill:none;stroke:#222829;stroke-width:2;stroke-miterlimit:10;" x1="45" y1="59" x2="45" y2="63"/>
	<line style="fill:none;stroke:#222829;stroke-width:2;stroke-miterlimit:10;" x1="55" y1="59" x2="55" y2="63"/>
	<line style="fill:none;stroke:#222829;stroke-width:2;stroke-miterlimit:10;" x1="19" y1="63" x2="19" y2="60"/>
	<line style="fill:none;stroke:#222829;stroke-width:2;stroke-miterlimit:10;" x1="15" y1="63" x2="15" y2="60"/>
	<line style="fill:none;stroke:#222829;stroke-width:2;stroke-miterlimit:10;" x1="11" y1="63" x2="11" y2="60"/>
	<line style="fill:none;stroke:#222829;stroke-width:2;stroke-miterlimit:10;" x1="7" y1="63" x2="7" y2="60"/>
</g>
</svg>
