<?xml version="1.0" encoding="iso-8859-1"?>
<!-- Generator: Adobe Illustrator 17.0.0, SVG Export Plug-In . SVG Version: 6.00 Build 0)  -->
<!DOCTYPE svg PUBLIC "-//W3C//DTD SVG 1.1//EN" "http://www.w3.org/Graphics/SVG/1.1/DTD/svg11.dtd">
<svg version="1.1" id="_x34_1_x5F_charity_x5F_and_x5F_donation"
	 xmlns="http://www.w3.org/2000/svg" xmlns:xlink="http://www.w3.org/1999/xlink" x="0px" y="0px" width="64px" height="60px"
	 viewBox="0 0 64 60" style="enable-background:new 0 0 64 60;" xml:space="preserve">
<g>
	<g>
		<path style="fill:none;stroke:#222829;stroke-width:2;stroke-miterlimit:10;" d="M21,37"/>
		<path style="fill:none;stroke:#222829;stroke-width:2;stroke-miterlimit:10;" d="M13,36.999h9l11,4h9c1.656,0,3,1.343,3,3
			s-1.344,3-3,3H31c-1.656,0-3,1.343-3,3"/>
		<path style="fill:none;stroke:#222829;stroke-width:2;stroke-miterlimit:10;" d="M44,45.999L60,41c1.656,0,3,1.343,3,3
			c0,0.997-1,1.999-1,1.999l-25,13h-2l-17-6h-5"/>
		<line style="fill:none;stroke:#222829;stroke-width:2;stroke-miterlimit:10;" x1="10" y1="50.999" x2="8" y2="50.999"/>
		<line style="fill:none;stroke:#222829;stroke-width:2;stroke-miterlimit:10;" x1="6" y1="50.999" x2="4" y2="50.999"/>
		<path style="fill:none;stroke:#222829;stroke-width:2;stroke-miterlimit:10;" d="M0,34.999h12c0.553,0,1,0.448,1,1.001v18
			c0,0.553-0.447,0.999-1,0.999H0"/>
	</g>
	<path style="fill:none;stroke:#222829;stroke-width:2;stroke-miterlimit:10;" d="M36,33c0,0,18-12,18-23c0-4.971-4.029-9-9-9
		s-9,4-9,7c0-3-4.029-7-9-7s-9,4.029-9,9C18,21,36,33,36,33z"/>
	
		<line style="fill:none;stroke:#222829;stroke-width:2;stroke-linejoin:round;stroke-miterlimit:10;" x1="36" y1="9.999" x2="36" y2="11.999"/>
	
		<line style="fill:none;stroke:#222829;stroke-width:2;stroke-linejoin:round;stroke-miterlimit:10;" x1="36" y1="13.999" x2="36" y2="15.999"/>
</g>
</svg>
